<?xml version="1.0" encoding="UTF-8" ?>
<!DOCTYPE svg PUBLIC "-//W3C//DTD SVG 1.1//EN" "http://www.w3.org/Graphics/SVG/1.1/DTD/svg11.dtd">
<svg width="817pt" height="136pt" viewBox="0 0 817 136" version="1.1" xmlns="http://www.w3.org/2000/svg">
<g id="#000000ff">
<path fill="#000000" opacity="1.00" d=" M 0.00 0.00 L 817.00 0.00 L 817.00 136.00 L 0.00 136.00 L 0.00 0.00 M 143.00 4.00 C 142.73 46.33 142.82 88.66 142.81 131.00 C 355.88 131.00 568.94 131.00 782.00 131.00 C 782.00 88.67 782.00 46.33 782.00 4.00 C 569.00 4.00 356.00 4.00 143.00 4.00 M 790.58 19.00 C 790.57 21.22 790.57 23.44 790.57 25.65 C 794.04 27.01 797.52 28.36 801.05 29.55 C 797.58 31.01 794.04 32.29 790.57 33.73 C 790.57 35.96 790.58 38.18 790.59 40.41 C 796.73 40.43 802.86 40.41 809.00 40.42 C 808.99 38.47 808.99 36.53 809.00 34.58 C 806.54 34.58 804.09 34.60 801.65 34.53 C 804.07 33.82 806.49 33.08 808.93 32.38 C 808.96 30.64 809.00 28.89 809.04 27.15 C 807.01 25.93 803.11 26.43 802.37 23.88 C 804.00 26.08 806.78 24.50 809.00 24.76 C 808.98 22.84 808.99 20.92 809.00 19.00 C 802.86 19.00 796.72 19.00 790.58 19.00 M 51.02 39.85 C 54.10 41.70 57.02 43.79 59.90 45.94 C 61.08 43.23 62.39 40.59 63.79 38.00 C 60.96 35.22 58.33 32.16 55.00 29.95 C 52.94 32.88 52.22 36.52 51.02 39.85 M 59.17 80.03 C 60.36 85.40 62.81 91.39 68.25 93.65 C 72.25 95.56 77.20 94.27 80.20 91.15 C 84.72 86.66 86.27 80.14 87.05 74.02 C 89.36 57.94 83.09 41.90 73.95 28.92 C 62.01 42.75 55.42 61.84 59.17 80.03 M 82.01 36.05 C 83.80 39.48 85.42 42.99 86.78 46.61 C 88.61 45.29 90.50 44.05 92.44 42.88 C 91.82 38.77 90.61 34.78 89.34 30.83 C 86.65 32.20 84.33 34.15 82.01 36.05 M 34.16 35.68 C 33.60 45.74 34.67 56.01 38.47 65.41 C 42.76 75.76 49.77 85.71 60.00 90.85 C 53.30 78.05 54.03 62.39 58.73 49.04 C 51.53 43.03 43.10 38.51 34.16 35.68 M 88.05 49.27 C 88.87 54.52 90.45 59.66 90.48 65.01 C 90.63 74.14 89.48 83.83 84.12 91.51 C 90.23 88.98 95.28 84.51 99.40 79.42 C 108.99 67.92 112.74 52.63 112.94 37.92 C 103.94 39.89 95.61 44.09 88.05 49.27 M 796.34 55.49 C 791.68 57.07 789.40 62.68 790.76 67.24 C 791.82 72.22 797.31 75.05 802.11 73.85 C 809.45 72.70 811.75 62.24 806.52 57.43 C 803.90 54.75 799.76 54.73 796.34 55.49 M 9.23 67.66 C 17.13 80.95 29.19 92.32 44.22 96.85 C 51.38 99.05 60.05 100.82 66.60 96.12 C 64.03 94.76 61.17 94.23 58.45 93.31 C 54.47 91.70 51.08 88.94 48.11 85.90 C 42.29 79.83 37.72 72.55 34.92 64.62 C 26.27 63.93 17.52 65.24 9.23 67.66 M 88.71 92.70 C 85.35 94.88 80.89 94.28 77.75 96.79 C 83.61 99.86 90.47 100.09 96.83 98.70 C 113.06 95.94 126.81 85.12 136.26 72.03 C 128.13 68.78 119.47 66.98 110.72 66.67 C 105.93 77.07 98.84 86.96 88.71 92.70 M 7.44 86.24 C 19.54 99.72 37.67 108.44 55.99 107.01 C 62.33 106.51 70.02 104.02 71.85 97.12 C 68.91 97.81 66.75 100.12 63.90 101.00 C 60.37 102.11 56.59 102.41 52.92 101.88 C 38.71 100.13 25.60 92.63 16.05 82.09 C 13.16 83.43 10.29 84.81 7.44 86.24 M 90.89 102.46 C 84.91 103.06 79.10 101.17 74.06 98.06 C 74.99 100.84 77.58 102.51 80.04 103.81 C 85.00 106.27 90.57 107.18 96.06 107.40 C 111.09 108.24 125.78 102.11 137.55 93.10 C 134.41 90.65 131.12 88.42 127.77 86.28 C 117.62 95.42 104.68 101.78 90.89 102.46 M 791.07 101.05 C 792.86 108.40 804.48 109.16 808.04 102.89 C 809.44 100.52 809.04 97.60 808.89 94.99 C 808.45 91.55 805.26 89.24 802.01 88.76 C 801.99 90.78 801.99 92.81 802.03 94.83 C 803.24 95.99 805.08 97.93 803.41 99.53 C 801.15 102.48 796.66 101.15 795.34 97.97 C 796.11 96.88 796.93 95.82 797.78 94.78 C 797.81 92.78 797.82 90.78 797.81 88.78 C 792.07 89.31 789.13 96.01 791.07 101.05 M 805.44 122.41 C 802.12 123.38 803.18 130.15 807.08 128.82 C 811.09 128.52 809.63 120.62 805.44 122.41 Z" />
<path fill="#000000" opacity="1.00" d=" M 170.13 53.98 C 178.73 44.44 195.57 44.22 204.21 53.80 C 207.50 57.07 209.29 61.50 210.20 65.98 C 206.30 66.00 202.40 66.11 198.51 65.83 C 196.72 61.12 192.23 57.24 187.04 57.26 C 180.97 57.57 175.74 63.01 175.44 69.04 C 175.35 75.32 180.72 81.16 186.99 81.57 C 191.99 81.55 196.35 78.06 198.35 73.61 C 202.31 73.48 206.27 73.51 210.23 73.58 C 208.70 79.41 205.59 85.06 200.36 88.33 C 191.01 94.48 177.04 93.04 169.73 84.34 C 162.30 76.00 162.56 62.15 170.13 53.98 Z" />
<path fill="#000000" opacity="1.00" d=" M 235.46 47.67 C 240.60 46.67 246.13 46.88 250.96 49.01 C 258.03 52.14 263.16 59.22 263.86 66.93 C 264.79 74.57 261.65 82.68 255.46 87.37 C 245.26 95.46 228.19 92.90 221.55 81.44 C 218.06 75.84 217.52 68.72 219.36 62.47 C 221.60 55.14 227.97 49.29 235.46 47.67 M 239.41 57.52 C 234.55 58.50 230.50 62.60 229.48 67.43 C 228.25 73.70 232.96 80.25 239.14 81.50 C 245.33 82.82 251.52 77.77 252.75 71.83 C 254.46 64.29 247.10 56.20 239.41 57.52 Z" />
<path fill="#000000" opacity="1.00" d=" M 265.25 47.02 C 279.08 46.98 292.91 46.99 306.75 47.02 C 306.73 50.42 306.72 53.82 306.75 57.23 C 292.91 57.27 279.06 57.35 265.22 57.18 C 265.28 53.80 265.28 50.41 265.25 47.02 Z" />
<path fill="#000000" opacity="1.00" d=" M 314.23 47.04 C 328.07 46.96 341.92 46.99 355.76 47.03 C 355.72 50.42 355.72 53.81 355.77 57.19 C 341.92 57.29 328.06 57.37 314.20 57.15 C 314.29 53.78 314.28 50.41 314.23 47.04 Z" />
<path fill="#000000" opacity="1.00" d=" M 376.48 47.66 C 384.36 45.97 393.37 47.80 398.91 53.97 C 407.54 62.70 406.90 78.54 397.52 86.48 C 387.31 95.79 368.76 93.19 362.17 80.81 C 357.64 72.72 358.50 61.74 364.68 54.74 C 367.71 51.19 371.93 48.68 376.48 47.66 M 380.44 57.51 C 375.57 58.47 371.52 62.58 370.49 67.41 C 369.18 73.96 374.36 80.77 380.91 81.64 C 386.88 82.39 392.58 77.51 393.76 71.80 C 395.44 64.27 388.11 56.22 380.44 57.51 Z" />
<path fill="#000000" opacity="1.00" d=" M 413.24 46.74 C 414.98 46.92 417.13 46.14 418.48 47.63 C 425.63 54.58 432.52 61.82 439.73 68.72 C 439.74 61.48 439.72 54.24 439.74 47.00 C 443.40 46.99 447.08 46.99 450.75 47.02 C 450.73 62.00 450.71 76.98 450.76 91.96 C 449.47 91.98 448.19 92.00 446.91 92.01 C 435.82 80.83 424.53 69.82 413.55 58.53 C 412.86 54.67 413.45 50.66 413.24 46.74 Z" />
<path fill="#000000" opacity="1.00" d=" M 489.25 47.02 C 496.18 47.02 503.11 46.93 510.04 47.04 C 518.39 47.24 526.21 52.81 529.36 60.50 C 531.07 64.46 531.33 68.89 530.85 73.13 C 529.65 83.31 520.29 92.01 509.96 92.00 C 503.06 92.02 496.15 92.01 489.25 91.98 C 489.27 82.25 489.30 72.52 489.23 62.80 C 492.97 62.71 496.72 62.72 500.46 62.74 C 500.47 69.06 500.47 75.39 500.46 81.72 C 506.47 82.06 513.79 82.21 517.54 76.54 C 523.09 69.86 518.17 58.99 509.93 57.61 C 503.06 56.75 496.09 57.64 489.19 57.14 C 489.28 53.77 489.28 50.39 489.25 47.02 Z" />
<path fill="#000000" opacity="1.00" d=" M 539.25 47.03 C 542.98 46.99 546.72 46.99 550.46 47.00 C 550.49 55.02 550.44 63.04 550.47 71.06 C 550.27 76.35 554.78 81.29 560.05 81.57 C 565.23 81.35 569.46 76.54 569.62 71.45 C 569.90 63.31 569.64 55.15 569.74 47.01 C 573.41 46.98 577.09 46.99 580.77 47.05 C 580.65 56.69 580.81 66.33 580.70 75.96 C 580.61 80.25 578.41 84.31 575.04 86.90 C 568.60 92.31 559.28 93.33 551.48 90.62 C 545.43 88.38 539.74 83.25 539.38 76.43 C 539.09 66.64 539.37 56.83 539.25 47.03 Z" />
<path fill="#000000" opacity="1.00" d=" M 588.25 46.73 C 589.98 46.91 592.12 46.15 593.48 47.62 C 600.62 54.62 607.59 61.80 614.74 68.80 C 614.73 61.54 614.73 54.27 614.74 47.01 C 618.40 46.99 622.08 46.99 625.75 47.03 C 625.72 62.00 625.71 76.97 625.76 91.95 C 624.48 91.97 623.20 92.00 621.94 92.03 C 610.71 80.89 599.63 69.61 588.35 58.54 C 588.22 54.60 588.26 50.67 588.25 46.73 Z" />
<path fill="#000000" opacity="1.00" d=" M 633.25 46.77 C 636.98 46.72 640.72 46.72 644.46 46.74 C 644.47 61.82 644.47 76.91 644.46 92.00 C 640.72 92.01 636.98 92.01 633.25 91.97 C 633.28 76.91 633.28 61.84 633.25 46.77 Z" />
<path fill="#000000" opacity="1.00" d=" M 651.82 46.85 C 656.45 46.67 661.09 46.69 665.73 46.80 C 668.76 51.23 672.04 55.48 675.17 59.84 C 678.39 55.46 681.54 51.02 684.86 46.70 C 689.37 46.77 693.88 46.68 698.39 46.80 C 693.13 55.55 686.06 63.13 680.82 71.86 C 680.58 78.55 680.80 85.27 680.75 91.97 C 677.08 92.01 673.40 92.01 669.74 91.99 C 669.68 85.63 669.82 79.27 669.71 72.91 C 669.79 71.68 669.03 70.68 668.39 69.73 C 662.87 62.10 657.07 54.66 651.82 46.85 Z" />
<path fill="#000000" opacity="1.00" d=" M 713.93 55.96 C 715.23 52.74 717.20 49.84 718.83 46.78 C 719.70 46.73 721.44 46.63 722.31 46.59 C 728.69 57.37 734.46 68.49 740.65 79.39 C 742.86 83.58 745.44 87.59 747.29 91.97 C 742.65 92.00 738.01 92.10 733.38 91.88 C 727.21 79.74 719.88 68.18 713.93 55.96 Z" />
<path fill="#000000" opacity="1.00" d=" M 798.09 61.28 C 800.84 59.77 805.22 62.61 803.76 65.85 C 802.35 69.31 796.36 68.73 795.80 65.06 C 795.28 63.38 796.68 61.91 798.09 61.28 Z" />
<path fill="#000000" opacity="1.00" d=" M 709.21 64.11 C 709.76 63.33 710.36 61.37 711.68 62.31 C 714.13 65.64 716.05 69.39 717.78 73.14 C 715.24 79.75 711.00 85.65 707.82 92.00 C 703.17 91.98 698.51 92.10 693.87 91.85 C 698.97 82.60 704.11 73.36 709.21 64.11 Z" />
<path fill="#000000" opacity="1.00" d=" M 280.25 62.77 C 283.92 62.72 287.59 62.72 291.26 62.74 C 291.27 72.49 291.27 82.24 291.26 91.99 C 287.59 92.01 283.92 92.01 280.24 91.97 C 280.28 82.24 280.28 72.51 280.25 62.77 Z" />
<path fill="#000000" opacity="1.00" d=" M 329.24 62.78 C 332.91 62.72 336.59 62.72 340.26 62.74 C 340.27 72.49 340.27 82.24 340.26 91.99 C 336.59 92.01 332.92 92.01 329.25 91.97 C 329.28 82.24 329.29 72.51 329.24 62.78 Z" />
<path fill="#000000" opacity="1.00" d=" M 413.24 91.96 C 413.53 83.35 412.77 74.68 413.65 66.10 C 417.86 68.72 420.85 72.78 424.47 76.09 C 424.47 81.39 424.47 86.69 424.46 92.00 C 420.72 92.01 416.98 92.01 413.24 91.96 Z" />
<path fill="#000000" opacity="1.00" d=" M 588.21 66.60 C 593.09 67.85 595.63 73.09 599.46 76.09 C 599.47 81.39 599.47 86.69 599.46 92.00 C 595.72 92.01 591.98 92.01 588.24 91.97 C 588.26 83.51 588.32 75.05 588.21 66.60 Z" />
</g>
<g id="#ffffffff">
<path fill="#ffffff" opacity="1.00" d=" M 790.58 19.00 C 796.72 19.00 802.86 19.00 809.00 19.00 C 808.99 20.92 808.98 22.84 809.00 24.76 C 806.78 24.50 804.00 26.08 802.37 23.88 C 803.11 26.43 807.01 25.93 809.04 27.15 C 809.00 28.89 808.96 30.64 808.93 32.38 C 806.49 33.08 804.07 33.82 801.65 34.53 C 804.09 34.60 806.54 34.58 809.00 34.58 C 808.99 36.53 808.99 38.47 809.00 40.42 C 802.86 40.41 796.73 40.43 790.59 40.41 C 790.58 38.18 790.57 35.96 790.57 33.73 C 794.04 32.29 797.58 31.01 801.05 29.55 C 797.52 28.36 794.04 27.01 790.57 25.65 C 790.57 23.44 790.57 21.22 790.58 19.00 Z" />
<path fill="#ffffff" opacity="1.00" d=" M 796.34 55.49 C 799.76 54.73 803.90 54.75 806.52 57.43 C 811.75 62.24 809.45 72.70 802.11 73.85 C 797.31 75.05 791.82 72.22 790.76 67.24 C 789.40 62.68 791.68 57.07 796.34 55.49 M 798.09 61.28 C 796.68 61.91 795.28 63.38 795.80 65.06 C 796.36 68.73 802.35 69.31 803.76 65.85 C 805.22 62.61 800.84 59.77 798.09 61.28 Z" />
<path fill="#ffffff" opacity="1.00" d=" M 791.07 101.05 C 789.13 96.01 792.07 89.31 797.81 88.78 C 797.82 90.78 797.81 92.78 797.78 94.78 C 796.93 95.82 796.11 96.88 795.34 97.97 C 796.66 101.15 801.15 102.48 803.41 99.53 C 805.08 97.93 803.24 95.99 802.03 94.83 C 801.99 92.81 801.99 90.78 802.01 88.76 C 805.26 89.24 808.45 91.55 808.89 94.99 C 809.04 97.60 809.44 100.52 808.04 102.89 C 804.48 109.16 792.86 108.40 791.07 101.05 Z" />
<path fill="#ffffff" opacity="1.00" d=" M 805.44 122.41 C 809.63 120.62 811.09 128.52 807.08 128.82 C 803.18 130.15 802.12 123.38 805.44 122.41 Z" />
</g>
</svg>
